# xmcd
#
# Track frame offsets:
# 150
# 22862
# 40740
# 56987
# 71525
# 94116
# 109594
# 132309
# 157713
# 180895
# 205100
# 220847
# 245950
# 267622
# 286346
#
# Disc length: 4112 seconds
#
#
# Revision: 2
# Processed by: cddbd v1.5.2PL0 Copyright (c) Steve Scherf et al.
# Submitted via: FreeRIP 2.945 
#
DISCID=d3100e0f
DTITLE=Still Got The Blues - MUZIK.DE#02
DYEAR=1999
DGENRE=Blues
TTITLE0=Robert Ward - Lord Have Mercy On Me
TTITLE1=John Mayall - All Those Heroes
TTITLE2=Brendan Croker and The 5 O'Clock Shadows - No Money At All
TTITLE3=James Glass and The Get To Gettin' Band - Look Now Baby
TTITLE4=Pops Staples - Down In Mississippi
TTITLE5=Buddy Guy - Some Kind Of Wonderful
TTITLE6=Albert Collins - Iceman
TTITLE7=Larry McCray - Hole In My Heart
TTITLE8=Blue Lou and The Headhunters - Third Degree
TTITLE9=Johnny Winter - You Keep Sayin' That You're Leavin'
TTITLE10=John Hammond - Trouble Blues
TTITLE11=John Mayall - One In A Million
TTITLE12=The Duke Robillard Band - Glamour Girl
TTITLE13=Walter Wolfman Washington - Chokin' Kind
TTITLE14=Hi Tide Harris - I Miss You So
EXTD=
EXTT0=
EXTT1=
EXTT2=
EXTT3=
EXTT4=
EXTT5=
EXTT6=
EXTT7=
EXTT8=
EXTT9=
EXTT10=
EXTT11=
EXTT12=
EXTT13=
EXTT14=
PLAYORDER=
